<svg width="30" height="22" viewBox="0 0 30 22" fill="none" xmlns="http://www.w3.org/2000/svg">
<path d="M15.0147 0.810587C14.8261 0.809541 14.639 0.829169 14.4643 0.86832C14.2897 0.907471 14.1311 0.965357 13.9977 1.03859L0.41461 8.49208C0.282906 8.56432 0.178428 8.6501 0.107147 8.7445C0.0358649 8.83891 -0.000823975 8.9401 -0.000823975 9.04228C-0.000823975 9.14447 0.0358649 9.24566 0.107147 9.34007C0.178428 9.43447 0.282906 9.52024 0.41461 9.59248L13.9971 17.046C14.1287 17.1183 14.285 17.1756 14.4571 17.2147C14.6291 17.2538 14.8135 17.274 14.9997 17.274C15.1859 17.274 15.3703 17.2538 15.5423 17.2147C15.7144 17.1756 15.8707 17.1183 16.0023 17.046L29.5851 9.59309C29.7168 9.52085 29.8213 9.43507 29.8926 9.34067C29.9639 9.24626 30.0005 9.14507 30.0005 9.04289C30.0005 8.9407 29.9639 8.83951 29.8926 8.7451C29.8213 8.6507 29.7168 8.56492 29.5851 8.49268L16.0026 1.03859C15.7404 0.894568 15.3857 0.812711 15.0147 0.810587ZM1.41811 11.8572L0.41491 12.4074C0.283206 12.4796 0.178728 12.5654 0.107447 12.6598C0.0361649 12.7542 -0.000523975 12.8554 -0.000523975 12.9576C-0.000523975 13.0598 0.0361649 13.161 0.107447 13.2554C0.178728 13.3498 0.283206 13.4355 0.41491 13.5078L13.9974 20.9616C14.129 21.0339 14.2853 21.0912 14.4574 21.1303C14.6294 21.1694 14.8138 21.1896 15 21.1896C15.1862 21.1896 15.3706 21.1694 15.5426 21.1303C15.7147 21.0912 15.871 21.0339 16.0026 20.9616L29.5851 13.5081C29.7168 13.4358 29.8212 13.35 29.8924 13.2556C29.9637 13.1612 30.0003 13.06 30.0002 12.9578C30.0002 12.8556 29.9634 12.7544 29.8921 12.6601C29.8208 12.5657 29.7163 12.4799 29.5845 12.4077L28.5819 11.8575L26.577 12.9573L26.5782 12.9579L15 19.3116L3.42121 12.9576L3.42241 12.957L1.41811 11.8572Z" fill="#9C9C9C"/>
</svg>
