<svg width="20" height="24" viewBox="0 0 20 24" fill="none" xmlns="http://www.w3.org/2000/svg">
<path d="M0.25 23.25C0.249897 23.3802 0.286537 23.5083 0.356315 23.6215C0.426093 23.7347 0.526602 23.8291 0.647949 23.8956C0.769296 23.962 0.907298 23.9982 1.04837 24.0004C1.18944 24.0027 1.32872 23.971 1.4525 23.9085L10 19.6035L18.5475 23.9085C18.6713 23.971 18.8106 24.0027 18.9516 24.0004C19.0927 23.9982 19.2307 23.962 19.3521 23.8956C19.4734 23.8291 19.5739 23.7347 19.6437 23.6215C19.7135 23.5083 19.7501 23.3802 19.75 23.25V3C19.75 2.20435 19.4076 1.44129 18.7981 0.87868C18.1886 0.316071 17.362 0 16.5 0L3.5 0C2.63805 0 1.8114 0.316071 1.2019 0.87868C0.59241 1.44129 0.25 2.20435 0.25 3V23.25ZM10 6.615C12.2539 4.4775 17.8878 8.22 10 13.0305C2.11225 8.22 7.74613 4.479 10 6.618V6.615Z" fill="#9C9C9C"/>
</svg>
